<svg width="52" height="51" viewBox="0 0 52 51" fill="none" xmlns="http://www.w3.org/2000/svg">
<path d="M47.9478 44.681L39.9842 31.1545C43.0984 27.8383 44.967 23.4313 44.967 18.588C44.967 13.4392 42.8315 8.81402 39.4058 5.45422C35.9802 2.09442 31.2643 0 26.0145 0C20.7648 0 16.0489 2.09442 12.6233 5.45422C9.19759 8.81402 7.0621 13.4392 7.0621 18.588C7.0621 23.4313 8.93065 27.8383 12.0449 31.1545L4.08132 44.681C3.94785 44.8991 3.90336 45.2046 3.99234 45.51C4.17029 45.99 4.70417 46.2081 5.19355 46.0336L11.5555 43.5465L12.5343 50.2224C12.5788 50.4842 12.7122 50.7461 12.9792 50.877C13.4241 51.1388 14.0024 50.9642 14.2694 50.5279L22.3219 36.8705C23.4787 37.0887 24.7244 37.2196 25.9256 37.2196C27.1713 37.2196 28.3725 37.0887 29.5292 36.8705L37.5818 50.5279C37.8487 50.9642 38.4271 51.0951 38.872 50.877C39.1389 50.7461 39.2724 50.4842 39.3169 50.2224L40.2956 43.5465L46.6576 46.0336C47.147 46.2081 47.6808 45.99 47.8588 45.51C48.1257 45.2046 48.0812 44.8991 47.9478 44.681ZM14.0914 47.299L13.2906 42.1066C13.2016 41.6266 12.7567 41.2775 12.2229 41.3212C12.1339 41.3212 12.0449 41.3648 11.9559 41.4084L7.01761 43.3283L13.4241 32.4635C15.4261 34.2089 17.8285 35.5615 20.4979 36.3469L14.0914 47.299ZM26.0145 35.3433C21.2987 35.3433 17.0277 33.4671 13.9579 30.4564C10.8882 27.4456 8.97514 23.2568 8.97514 18.6316C8.97514 14.0064 10.8882 9.81759 13.9579 6.80687C17.0277 3.70887 21.2987 1.83262 26.0145 1.83262C30.7304 1.83262 35.0014 3.70887 38.0712 6.7196C41.1409 9.73033 43.054 13.9192 43.054 18.5443C43.054 23.1695 41.1409 27.3584 38.0712 30.3691C35.0014 33.4671 30.7304 35.3433 26.0145 35.3433ZM40.0732 41.4084C39.9842 41.3648 39.8952 41.3212 39.8062 41.3212C39.3169 41.2339 38.8275 41.583 38.7385 42.1066L37.9377 47.299L31.5312 36.3469C34.2006 35.5615 36.603 34.2089 38.605 32.4635L45.0115 43.3283L40.0732 41.4084Z" fill="url(#paint0_linear)"/>
<path d="M34.7345 15.3591C34.512 15.0537 34.2451 14.8355 33.9336 14.7046C33.6222 14.5737 33.2663 14.4864 32.9104 14.53H29.2178L28.0611 10.9521C27.8831 10.4285 27.4827 9.99213 27.0378 9.73033C26.7264 9.59943 26.4149 9.51216 26.059 9.51216C25.7031 9.51216 25.3917 9.59943 25.0803 9.73033C24.5909 9.99213 24.235 10.3848 24.057 10.9521L22.9003 14.53H19.2077C18.8518 14.4864 18.4958 14.5737 18.1844 14.7046C17.873 14.8355 17.6061 15.0537 17.3836 15.3591C17.0277 15.8391 16.9387 16.3627 17.0277 16.8863C17.1167 17.4099 17.3836 17.8898 17.873 18.2389L20.9872 20.4206L19.786 23.9986C19.786 24.0422 19.786 24.0858 19.7415 24.0858C19.6526 24.3476 19.6526 24.6531 19.6971 24.9585C19.7415 25.264 19.875 25.5694 20.0975 25.8312C20.4534 26.3112 20.9428 26.573 21.4766 26.6602C22.0105 26.7475 22.5889 26.6166 23.0338 26.2675L26.148 24.0422L29.2623 26.2675C29.7516 26.6166 30.2855 26.7039 30.8194 26.6602C31.3533 26.573 31.8426 26.3112 32.1986 25.8312C32.421 25.5694 32.51 25.264 32.599 24.9585C32.6435 24.6531 32.6435 24.3913 32.5545 24.0858C32.5545 24.0422 32.5545 23.9986 32.51 23.9986L31.3088 20.4206L34.423 18.2389C34.9124 17.8898 35.1793 17.4099 35.2683 16.8863C35.2238 16.4063 35.0904 15.8391 34.7345 15.3591ZM33.1773 16.7554L33.1328 16.799L29.5292 19.3734C29.2178 19.5916 29.0398 20.0279 29.1733 20.377L30.5525 24.5222V24.5658C30.5525 24.6094 30.5525 24.6531 30.5525 24.6967C30.5525 24.7403 30.5525 24.784 30.508 24.784C30.4635 24.8276 30.419 24.8713 30.33 24.8713C30.2855 24.8713 30.1965 24.8713 30.1521 24.8276L26.5039 22.2096C26.326 22.0787 26.148 22.0351 25.9256 22.0351C25.7476 22.0351 25.5252 22.0787 25.3472 22.2096L21.6991 24.8276C21.6546 24.8713 21.5656 24.8713 21.5211 24.8713C21.4766 24.8713 21.3877 24.8276 21.3432 24.784C21.2987 24.7404 21.2987 24.6967 21.2987 24.6967C21.2987 24.6531 21.2987 24.6094 21.2987 24.5658V24.5222L22.6778 20.377C22.8113 19.9843 22.6778 19.5916 22.3219 19.3734L18.8963 16.799L18.8518 16.7554C18.8073 16.7117 18.7628 16.6681 18.7628 16.6245C18.7628 16.5808 18.7628 16.4936 18.8073 16.4499C18.8073 16.4499 18.8073 16.4063 18.8518 16.4063C18.8962 16.3627 18.8962 16.3627 18.9407 16.3627C18.9852 16.3627 19.0297 16.319 19.0742 16.319C19.1187 16.319 19.1632 16.319 19.2077 16.319H23.5676C23.968 16.319 24.3239 16.0572 24.4574 15.6645L25.8366 11.4757C25.8366 11.432 25.8811 11.3448 25.9701 11.3448C26.0145 11.3448 26.059 11.3011 26.059 11.3011C26.1035 11.3011 26.148 11.3011 26.148 11.3448C26.1925 11.3884 26.237 11.432 26.2815 11.4757L27.6606 15.6645C27.7941 16.0136 28.15 16.319 28.5504 16.319H32.9104C32.9549 16.319 32.9994 16.319 33.0439 16.319C33.0883 16.319 33.1328 16.319 33.1773 16.3627C33.2218 16.3627 33.2218 16.4063 33.2663 16.4063C33.2663 16.4063 33.2663 16.4499 33.3108 16.4499C33.3553 16.4936 33.3553 16.5372 33.3553 16.6245C33.2663 16.6681 33.2218 16.7117 33.1773 16.7554Z" fill="url(#paint1_linear)"/>
<path d="M36.4696 8.33406C33.8002 5.71603 30.1076 4.10158 26.0146 4.10158C21.9216 4.10158 18.229 5.71603 15.5596 8.33406C12.8902 10.9521 11.2441 14.5737 11.2441 18.588C11.2441 22.6023 12.8902 26.2239 15.5596 28.8419C18.229 31.4599 21.9216 33.0744 26.0146 33.0744C30.1076 33.0744 33.8002 31.4599 36.4696 28.8419C39.1389 26.2239 40.785 22.6023 40.785 18.588C40.785 14.5737 39.1389 10.9521 36.4696 8.33406ZM35.1794 27.5329C32.8215 29.8455 29.5737 31.2418 26.0146 31.2418C22.4554 31.2418 19.2077 29.8019 16.8943 27.5329C14.5364 25.2203 13.1127 22.0787 13.1127 18.588C13.1127 15.0973 14.5808 11.912 16.8943 9.64307C19.2077 7.33048 22.4554 5.89057 26.0146 5.89057C29.5737 5.89057 32.8215 7.33048 35.1349 9.59944C37.4928 11.912 38.9165 15.0537 38.9165 18.5444C38.9165 22.0351 37.4928 25.2639 35.1794 27.5329Z" fill="url(#paint2_linear)"/>
<defs>
<linearGradient id="paint0_linear" x1="26" y1="0" x2="26" y2="51" gradientUnits="userSpaceOnUse">
<stop stop-color="#3793EA"/>
<stop offset="1" stop-color="#1F5486"/>
</linearGradient>
<linearGradient id="paint1_linear" x1="26.132" y1="9.51216" x2="26.132" y2="26.6864" gradientUnits="userSpaceOnUse">
<stop stop-color="#3793EA"/>
<stop offset="1" stop-color="#1F5486"/>
</linearGradient>
<linearGradient id="paint2_linear" x1="26.0146" y1="4.10158" x2="26.0146" y2="33.0744" gradientUnits="userSpaceOnUse">
<stop stop-color="#3793EA"/>
<stop offset="1" stop-color="#1F5486"/>
</linearGradient>
</defs>
</svg>
