<svg width="47" height="46" viewBox="0 0 47 46" fill="none" xmlns="http://www.w3.org/2000/svg">
<path d="M30.7476 12.3808H8.24C7.85812 12.3808 7.54858 12.6838 7.54858 13.0575C7.54858 13.4313 7.85812 13.7342 8.24 13.7342H30.7477C31.1296 13.7342 31.4391 13.4313 31.4391 13.0575C31.4391 12.6838 31.1295 12.3808 30.7476 12.3808Z" fill="url(#paint0_linear)"/>
<path d="M8.24 9.04017H19.4937C19.8756 9.04017 20.1852 8.73722 20.1852 8.36347C20.1852 7.98972 19.8756 7.68677 19.4937 7.68677H8.24C7.85812 7.68677 7.54858 7.98972 7.54858 8.36347C7.54858 8.73731 7.85812 9.04017 8.24 9.04017Z" fill="url(#paint1_linear)"/>
<path d="M30.7476 16.5399H8.24C7.85812 16.5399 7.54858 16.8428 7.54858 17.2166C7.54858 17.5903 7.85812 17.8933 8.24 17.8933H30.7477C31.1296 17.8933 31.4391 17.5903 31.4391 17.2166C31.439 16.8428 31.1295 16.5399 30.7476 16.5399Z" fill="url(#paint2_linear)"/>
<path d="M13.3672 41.2983H6.16413C4.98188 41.2983 4.01994 40.3569 4.01994 39.1998V3.45189C4.01994 2.29479 4.98188 1.35332 6.16413 1.35332H26.9154C26.9824 1.35332 27.0484 1.35934 27.1136 1.36796V5.58828C27.1136 7.49171 28.6959 9.04017 30.6406 9.04017H34.9525C34.9614 9.10414 34.9675 9.16873 34.9675 9.23432V20.7578C34.9675 21.1315 35.277 21.4345 35.6589 21.4345C36.0408 21.4345 36.3503 21.1315 36.3503 20.7578V9.23441C36.3503 8.49212 36.0549 7.79422 35.5187 7.26926L28.9231 0.813984C28.3868 0.289117 27.6738 0 26.9154 0H6.16413C4.21933 0 2.63721 1.54855 2.63721 3.45189V39.1998C2.63721 41.1032 4.21942 42.6516 6.16413 42.6516H13.3672C13.749 42.6516 14.0586 42.3487 14.0586 41.9749C14.0586 41.6012 13.749 41.2983 13.3672 41.2983ZM33.9898 7.68685H30.6407C29.4584 7.68685 28.4965 6.74538 28.4965 5.58828V2.31042L33.9898 7.68685Z" fill="url(#paint3_linear)"/>
<path d="M44.1504 33.128L38.2921 23.45C37.8652 22.7444 36.936 22.5112 36.2146 22.9294L34.7897 23.7557C33.6836 24.397 33.2161 25.6948 33.5959 26.8449C33.1158 27.0151 32.5894 27.0124 32.1047 26.8291C30.9797 26.4826 30.1243 25.7857 28.7116 26.1354C26.313 26.7331 26.3859 26.7032 26.1689 26.776C24.7644 25.9933 23.9201 25.7605 22.4291 26.3249L21.1001 26.8278C20.4848 27.0605 19.8068 27.0053 19.2382 26.6756L18.8755 26.4664C19.0525 25.4285 18.5822 24.3332 17.5864 23.7559C17.5864 23.7559 17.5864 23.7559 17.5863 23.7558L16.1614 22.9296C15.4421 22.5126 14.5102 22.746 14.0841 23.45L8.22559 33.1281C7.79864 33.8335 8.03621 34.7432 8.75737 35.1612L10.1822 35.9875C10.6134 36.2375 11.0873 36.3564 11.5554 36.3564C12.0775 36.3564 12.5922 36.2083 13.0323 35.9294L13.3292 36.1009L12.7022 36.9556C11.9551 37.9743 12.1925 39.3907 13.2335 40.1221C13.7149 40.4602 14.3196 40.6147 14.945 40.5185C15.0443 41.0863 15.3621 41.6176 15.8767 41.9793C16.36 42.3189 16.962 42.4735 17.5885 42.377C17.688 42.9442 18.0056 43.4751 18.52 43.8366C19.2112 44.3222 20.0706 44.3783 20.7867 44.079C20.9434 44.4773 21.2158 44.8371 21.5957 45.1041C22.5879 45.801 23.9545 45.6192 24.7254 44.7163L26.3916 45.6823C27.4934 46.3214 28.915 45.9662 29.5684 44.8866C29.7354 44.6106 29.8391 44.3098 29.877 44.0006L29.8808 44.0029C30.9809 44.6406 32.4058 44.2835 33.0576 43.207C33.2463 42.8952 33.3498 42.5569 33.3749 42.2179C34.3447 42.4566 35.4015 42.0579 35.9367 41.1739C36.1123 40.8838 36.2141 40.5706 36.2476 40.2553C37.2869 40.6545 38.5017 40.2687 39.0886 39.2991C39.4043 38.7775 39.4936 38.167 39.3401 37.5797C39.2522 37.2436 39.0906 36.9386 38.8689 36.681L39.7872 36.1559C40.5641 36.468 41.4506 36.4181 42.1936 35.9874L43.6183 35.1612C44.3395 34.7434 44.5777 33.8339 44.1504 33.128ZM10.8871 34.8232L9.46219 33.9969C9.39885 33.9601 9.37783 33.8798 9.41528 33.8178L15.2738 24.1396C15.3115 24.0773 15.3938 24.0571 15.4568 24.0938L16.8816 24.9199C17.5147 25.2871 17.7128 26.0818 17.3445 26.6902L12.6958 34.37C12.3248 34.9831 11.5135 35.1862 10.8871 34.8232ZM14.0398 39.0226C13.6199 38.7276 13.5239 38.156 13.8256 37.7449L14.7471 36.4885C15.0407 36.0883 15.6257 35.9787 16.0527 36.2787C16.4717 36.5731 16.5678 37.1463 16.2671 37.5564L15.3454 38.8128C15.0446 39.2231 14.4587 39.3169 14.0398 39.0226ZM16.6831 40.88C16.2641 40.5855 16.1679 40.0122 16.4688 39.6021L17.3903 38.3459C17.3903 38.3459 17.3903 38.3459 17.3903 38.3458C17.3903 38.3458 17.3903 38.3457 17.3904 38.3457L18.4074 36.9592C18.5532 36.7606 18.7692 36.6292 19.0158 36.5897C19.067 36.5814 19.1183 36.5774 19.1692 36.5774C19.3633 36.5774 19.5521 36.6365 19.713 36.7494C19.9158 36.8921 20.05 37.1034 20.0904 37.3447C20.1309 37.5861 20.073 37.8284 19.9272 38.0271L17.9886 40.6701C17.6873 41.0811 17.1032 41.1752 16.6831 40.88ZM19.3264 42.7371C18.9075 42.4428 18.8113 41.87 19.1116 41.4599C19.1117 41.4597 19.1119 41.4596 19.112 41.4594L21.0506 38.8165C21.3513 38.4064 21.9373 38.3123 22.3562 38.6066C22.7752 38.901 22.8713 39.4742 22.5705 39.8843L21.7092 41.0587C21.7092 41.0587 21.7092 41.0587 21.7091 41.0588L20.6318 42.5274C20.331 42.9375 19.7455 43.0317 19.3264 42.7371ZM22.4022 44.0047C21.9834 43.7103 21.8871 43.1378 22.1872 42.7276L22.8324 41.848C23.1331 41.4378 23.7191 41.344 24.1379 41.6383C24.5569 41.9326 24.6531 42.5059 24.3523 42.916L23.7076 43.7948C23.4069 44.205 22.821 44.2992 22.4022 44.0047ZM37.8992 38.6094C37.6361 39.0439 37.0611 39.188 36.617 38.9306C35.865 38.4946 31.0141 35.6819 30.4969 35.382C30.1683 35.1915 29.7442 35.2976 29.5496 35.6192C29.355 35.9407 29.4634 36.3558 29.792 36.5463L34.4188 39.2291L34.4189 39.2292C34.8631 39.4867 35.0113 40.0478 34.7472 40.4842C34.484 40.919 33.9087 41.0628 33.4648 40.8056C31.7535 39.8134 30.364 39.0076 28.8355 38.1213C28.5067 37.9309 28.0828 38.037 27.8882 38.3585C27.6936 38.6801 27.802 39.0951 28.1306 39.2856L31.5397 41.2624L31.5404 41.2628C31.9849 41.5211 32.1316 42.0819 31.8681 42.5175C31.6049 42.9522 31.0298 43.0962 30.5856 42.8388L28.756 41.778C28.7558 41.7779 28.7555 41.7778 28.7553 41.7776C28.7551 41.7775 28.755 41.7774 28.7548 41.7773L27.4196 41.0031C27.091 40.8125 26.6669 40.9186 26.4723 41.2403C26.2777 41.5618 26.3861 41.9769 26.7147 42.1674L28.0501 42.9417C28.0503 42.9418 28.0505 42.942 28.0507 42.9421C28.4949 43.1996 28.6431 43.7606 28.379 44.197C28.1158 44.6318 27.5407 44.7758 27.0965 44.5183L25.5386 43.6151C26.2064 42.6065 25.9524 41.2474 24.9444 40.5392C24.6483 40.3313 24.3187 40.2018 23.9815 40.1462C24.3392 39.2103 24.0308 38.1176 23.1625 37.5076C22.6484 37.1463 22.0329 37.0215 21.4521 37.1106C21.3487 36.519 21.0181 36.0007 20.5194 35.6504C19.5814 34.9916 18.3067 35.1182 17.5194 35.8978C17.3594 35.6228 17.1385 35.3761 16.8591 35.1798C16.0796 34.6323 15.0677 34.6271 14.296 35.0883L13.9792 34.9053L18.3277 27.7215L18.5347 27.841C19.449 28.371 20.5647 28.4815 21.5987 28.0902L22.9277 27.5873C23.6882 27.2997 24.1076 27.2809 24.8599 27.6283C24.3677 28.1695 24.0755 28.8801 24.0755 29.6459V32.6463C24.0755 33.4432 24.7375 34.0919 25.5511 34.0925H25.5531C26.3692 34.0925 27.1366 33.7815 27.7139 33.2169C28.0504 32.8877 28.2988 32.4952 28.4477 32.0669C29.3404 32.5843 36.716 36.8589 37.5711 37.3548C37.7862 37.4795 37.9388 37.6787 38.0007 37.9157C38.0627 38.1524 38.0266 38.3989 37.8992 38.6094ZM42.9139 33.9969L41.4889 34.8232C40.8625 35.1861 40.0512 34.9828 39.6803 34.3701L37.5015 30.7705C37.3068 30.4489 36.8825 30.3428 36.5542 30.5331C36.2257 30.7236 36.1172 31.1387 36.3117 31.4602L38.4906 35.0599C38.5316 35.1276 38.5761 35.1921 38.6222 35.2549L38.0164 35.6012C37.894 35.6722 37.7762 35.7504 37.6636 35.8353L28.2706 30.3912C27.8105 30.1246 27.227 30.4496 27.227 30.9734C27.2197 31.0138 27.2984 31.7094 26.7363 32.2593C26.4202 32.5684 25.9999 32.7388 25.553 32.7388C25.5526 32.7388 25.5523 32.7388 25.5519 32.7388C25.5002 32.7388 25.4582 32.6971 25.4582 32.6459V29.6456C25.4582 28.8618 26.0091 28.2005 26.7542 28.0159L29.0506 27.4471C29.8839 27.241 30.3549 27.6765 31.6025 28.0897C32.4686 28.4177 33.4103 28.3975 34.2462 28.0481L34.6636 28.7375C34.8583 29.0592 35.2824 29.1653 35.6108 28.9749C35.9393 28.7844 36.0478 28.3693 35.8533 28.0478L35.0314 26.69C34.6595 26.0756 34.8667 25.2839 35.4943 24.9198L36.9192 24.0937C36.9814 24.0575 37.0638 24.076 37.1023 24.1396L42.9606 33.8176C42.9984 33.8801 42.9776 33.9599 42.9139 33.9969Z" fill="url(#paint4_linear)"/>
<defs>
<linearGradient id="paint0_linear" x1="19.4938" y1="12.3808" x2="19.4938" y2="13.7342" gradientUnits="userSpaceOnUse">
<stop stop-color="#3793EA"/>
<stop offset="1" stop-color="#1F5486"/>
</linearGradient>
<linearGradient id="paint1_linear" x1="13.8669" y1="7.68677" x2="13.8669" y2="9.04017" gradientUnits="userSpaceOnUse">
<stop stop-color="#3793EA"/>
<stop offset="1" stop-color="#1F5486"/>
</linearGradient>
<linearGradient id="paint2_linear" x1="19.4938" y1="16.5399" x2="19.4938" y2="17.8933" gradientUnits="userSpaceOnUse">
<stop stop-color="#3793EA"/>
<stop offset="1" stop-color="#1F5486"/>
</linearGradient>
<linearGradient id="paint3_linear" x1="19.4938" y1="0" x2="19.4938" y2="42.6516" gradientUnits="userSpaceOnUse">
<stop stop-color="#3793EA"/>
<stop offset="1" stop-color="#1F5486"/>
</linearGradient>
<linearGradient id="paint4_linear" x1="26.188" y1="22.7217" x2="26.188" y2="46" gradientUnits="userSpaceOnUse">
<stop stop-color="#3793EA"/>
<stop offset="1" stop-color="#1F5486"/>
</linearGradient>
</defs>
</svg>
