<svg width="50" height="48" viewBox="0 0 50 48" fill="none" xmlns="http://www.w3.org/2000/svg">
<path d="M26.6585 31.5977H39.9876C40.4875 31.5977 40.8207 31.2778 40.8207 30.7979V23.6002C40.8207 23.1203 40.4875 22.8005 39.9876 22.8005H26.6585C26.1586 22.8005 25.8254 23.1203 25.8254 23.6002V30.7979C25.8253 31.2777 26.1586 31.5977 26.6585 31.5977ZM27.4915 24.3999H39.1546V29.9981H27.4915V24.3999Z" fill="url(#paint0_linear)"/>
<path d="M4.16532 21.2008H10.8299C11.3298 21.2008 11.663 20.881 11.663 20.4011C11.663 19.9213 11.3298 19.6014 10.8299 19.6014H4.16532C3.66547 19.6014 3.33228 19.9213 3.33228 20.4011C3.33228 20.881 3.66547 21.2008 4.16532 21.2008Z" fill="url(#paint1_linear)"/>
<path d="M14.1624 21.2008H20.827C21.3268 21.2008 21.66 20.881 21.66 20.4011C21.66 19.9213 21.3268 19.6014 20.827 19.6014H14.1624C13.6625 19.6014 13.3293 19.9213 13.3293 20.4011C13.3293 20.881 13.6625 21.2008 14.1624 21.2008Z" fill="url(#paint2_linear)"/>
<path d="M4.16532 24.3999H14.9952C15.4951 24.3999 15.8283 24.08 15.8283 23.6002C15.8283 23.1203 15.4951 22.8005 14.9952 22.8005H4.16532C3.66547 22.8005 3.33228 23.1203 3.33228 23.6002C3.33228 24.08 3.66547 24.3999 4.16532 24.3999Z" fill="url(#paint3_linear)"/>
<path d="M20.8269 22.8004H18.3277C17.8278 22.8004 17.4946 23.1203 17.4946 23.6001C17.4946 24.08 17.8278 24.3998 18.3277 24.3998H20.8269C21.3267 24.3998 21.6599 24.08 21.6599 23.6001C21.6599 23.1203 21.3267 22.8004 20.8269 22.8004Z" fill="url(#paint4_linear)"/>
<path d="M49.2346 12.8835C48.6515 12.1637 47.9017 11.7638 46.9853 11.6839L44.9859 11.4513V9.2046V7.60516C44.9859 5.84574 43.4864 4.40619 41.6537 4.40619H3.33226C1.49953 4.4061 0 5.84565 0 7.60516V9.20469V15.6027V33.1972C0 34.6417 1.01111 35.8699 2.38724 36.2636C2.34526 37.8814 3.62035 39.2859 5.33173 39.4352L43.8197 43.5939C43.903 43.5939 44.0696 43.5939 44.1529 43.5939C45.8191 43.5939 47.3186 42.3943 47.4852 40.8748L49.9844 15.2028C50.0677 14.403 49.8177 13.5232 49.2346 12.8835ZM1.66618 10.0044H43.3199V12.0838V14.8029H1.66618V10.0044ZM3.33226 6.00563H41.6536C42.57 6.00563 43.3198 6.7254 43.3198 7.60516V8.40488H1.66618V7.60516C1.66618 6.7254 2.41594 6.00563 3.33226 6.00563ZM1.66618 33.1971V16.4023H43.3199V33.1971C43.3199 34.0769 42.5701 34.7966 41.6537 34.7966H3.41563H3.33236C2.41594 34.7966 1.66618 34.0769 1.66618 33.1971ZM48.3182 14.8829L45.819 40.5548C45.7357 41.4346 44.9026 42.0743 43.9863 41.9944L5.58156 37.8357C4.74852 37.7558 4.1653 37.1159 4.08203 36.3962H41.6536C43.4863 36.3962 44.9858 34.9566 44.9858 33.1972V15.6026V12.9635L46.9019 13.1234C47.3185 13.1234 47.735 13.3634 47.9849 13.6832C48.2349 14.0031 48.4016 14.4829 48.3182 14.8829Z" fill="url(#paint5_linear)"/>
<defs>
<linearGradient id="paint0_linear" x1="33.323" y1="22.8005" x2="33.323" y2="31.5977" gradientUnits="userSpaceOnUse">
<stop stop-color="#3793EA"/>
<stop offset="1" stop-color="#1F5486"/>
</linearGradient>
<linearGradient id="paint1_linear" x1="7.49762" y1="19.6014" x2="7.49762" y2="21.2008" gradientUnits="userSpaceOnUse">
<stop stop-color="#3793EA"/>
<stop offset="1" stop-color="#1F5486"/>
</linearGradient>
<linearGradient id="paint2_linear" x1="17.4947" y1="19.6014" x2="17.4947" y2="21.2008" gradientUnits="userSpaceOnUse">
<stop stop-color="#3793EA"/>
<stop offset="1" stop-color="#1F5486"/>
</linearGradient>
<linearGradient id="paint3_linear" x1="9.58027" y1="22.8005" x2="9.58027" y2="24.3999" gradientUnits="userSpaceOnUse">
<stop stop-color="#3793EA"/>
<stop offset="1" stop-color="#1F5486"/>
</linearGradient>
<linearGradient id="paint4_linear" x1="19.5773" y1="22.8004" x2="19.5773" y2="24.3998" gradientUnits="userSpaceOnUse">
<stop stop-color="#3793EA"/>
<stop offset="1" stop-color="#1F5486"/>
</linearGradient>
<linearGradient id="paint5_linear" x1="25" y1="4.40619" x2="25" y2="43.5939" gradientUnits="userSpaceOnUse">
<stop stop-color="#3793EA"/>
<stop offset="1" stop-color="#1F5486"/>
</linearGradient>
</defs>
</svg>
