<svg width="11" height="11" viewBox="0 0 11 11" fill="none" xmlns="http://www.w3.org/2000/svg">
<path d="M10.0833 1.375H0.916674C0.411104 1.375 0 1.7861 0 2.29167V8.70835C0 9.2139 0.411104 9.625 0.916674 9.625H10.0833C10.5889 9.625 11 9.2139 11 8.70833V2.29167C11 1.7861 10.5889 1.375 10.0833 1.375ZM0.916674 1.83333H10.0833C10.1171 1.83333 10.1469 1.84564 10.1786 1.8526C9.38495 2.57892 6.75346 4.98629 5.83258 5.81599C5.76052 5.8809 5.64438 5.95833 5.50002 5.95833C5.35567 5.95833 5.23952 5.8809 5.16723 5.81578C4.24643 4.9862 1.61479 2.57871 0.821305 1.85264C0.853059 1.84568 0.882879 1.83333 0.916674 1.83333ZM0.458326 8.70833V2.29167C0.458326 2.24677 0.471861 2.20604 0.483979 2.165C1.09138 2.72093 2.92753 4.40067 4.1181 5.48333C2.93139 6.5027 1.09478 8.24396 0.482539 8.82778C0.471732 8.78881 0.458326 8.75069 0.458326 8.70833ZM10.0833 9.16667H0.916674C0.880064 9.16667 0.847516 9.15391 0.813334 9.14575C1.44598 8.54264 3.29429 6.79136 4.46013 5.79399C4.61212 5.93186 4.75095 6.05756 4.86039 6.15618C5.04928 6.32672 5.27037 6.41667 5.5 6.41667C5.72963 6.41667 5.95072 6.3267 6.13938 6.15639C6.24886 6.05773 6.3878 5.93192 6.53987 5.79399C7.70578 6.79125 9.55382 8.5424 10.1867 9.14575C10.1525 9.15391 10.12 9.16667 10.0833 9.16667ZM10.5417 8.70833C10.5417 8.75067 10.5283 8.78881 10.5175 8.82778C9.90501 8.24366 8.06861 6.50259 6.88192 5.48335C8.07254 4.40069 9.9084 2.7211 10.516 2.16496C10.5281 2.20599 10.5417 2.24675 10.5417 2.29165V8.70833Z" fill="#343434"/>
</svg>
