<svg width="14" height="14" viewBox="0 0 14 14" fill="none" xmlns="http://www.w3.org/2000/svg">
<path d="M6.99997 14L6.81407 13.7584C6.6204 13.5073 2.07031 7.5722 2.07031 4.92967C2.07031 2.20708 4.2774 0 6.99997 0C9.72257 0 11.9296 2.20708 11.9296 4.92967C11.9296 7.5722 7.37957 13.5073 7.1859 13.7584L6.99997 14ZM6.99997 0.46949C4.5378 0.47222 2.54253 2.4675 2.5398 4.92967C2.5398 7.12547 6.13353 12.0659 6.99997 13.2258C7.86643 12.0659 11.4601 7.125 11.4601 4.92967C11.4574 2.4675 9.46213 0.47222 6.99997 0.46949Z" fill="#343434"/>
<path d="M6.99992 6.57294C6.09239 6.57294 5.35669 5.83724 5.35669 4.9297C5.35669 4.02221 6.09239 3.2865 6.99992 3.2865C7.90746 3.2865 8.64312 4.02221 8.64312 4.9297C8.64212 5.8368 7.90699 6.5719 6.99992 6.57294ZM6.99992 3.75597C6.35169 3.75597 5.82619 4.28151 5.82619 4.9297C5.82619 5.57794 6.35169 6.10344 6.99992 6.10344C7.64812 6.10344 8.17366 5.57794 8.17366 4.9297C8.17289 4.28181 7.64782 3.75674 6.99992 3.75597Z" fill="#343434"/>
</svg>
