<svg width="86" height="86" viewBox="0 0 86 86" fill="none" xmlns="http://www.w3.org/2000/svg">
<g filter="url(#filter0_d)">
<path d="M34.2018 20.4916H74.2163V10.4309H30.0862L26.4023 14.1609L13.0166 27.7148L12.4477 28.291V56.9428H4.95264V67.0036H12.4477V67.0187H22.3836V55.7285H33.739V67.0187H43.675V55.6564L58.6028 40.5408V67.0187H68.5388V23.9706H58.6028V26.3128L43.675 41.4281V23.9708H33.739V45.6678H22.3836V32.4584L34.2018 20.4916Z" fill="url(#paint0_linear)"/>
<path d="M63.2564 76.45H17.1494C9.0604 76.45 2.479 69.8691 2.479 61.7792V15.6708C2.479 7.58092 9.0604 1 17.1494 1H63.2564C71.3455 1 77.9268 7.58092 77.9268 15.6708V61.7792C77.9268 69.8691 71.3455 76.45 63.2564 76.45ZM17.1494 7.98617C12.9121 7.98617 9.46497 11.4341 9.46497 15.6708V61.7792C9.46497 66.0159 12.9121 69.4638 17.1494 69.4638H63.2564C67.4938 69.4638 70.9409 66.0159 70.9409 61.7792V15.6708C70.9409 11.4341 67.4938 7.98617 63.2564 7.98617H17.1494Z" fill="url(#paint1_linear)"/>
</g>
<defs>
<filter id="filter0_d" x="0.479004" y="0" width="85.4478" height="85.45" filterUnits="userSpaceOnUse" color-interpolation-filters="sRGB">
<feFlood flood-opacity="0" result="BackgroundImageFix"/>
<feColorMatrix in="SourceAlpha" type="matrix" values="0 0 0 0 0 0 0 0 0 0 0 0 0 0 0 0 0 0 127 0"/>
<feOffset dx="3" dy="4"/>
<feGaussianBlur stdDeviation="2.5"/>
<feColorMatrix type="matrix" values="0 0 0 0 0 0 0 0 0 0 0 0 0 0 0 0 0 0 0.2 0"/>
<feBlend mode="normal" in2="BackgroundImageFix" result="effect1_dropShadow"/>
<feBlend mode="normal" in="SourceGraphic" in2="effect1_dropShadow" result="shape"/>
</filter>
<linearGradient id="paint0_linear" x1="39.5845" y1="10.4309" x2="39.5845" y2="67.0187" gradientUnits="userSpaceOnUse">
<stop stop-color="#FF1C42"/>
<stop offset="1" stop-color="#B20026"/>
</linearGradient>
<linearGradient id="paint1_linear" x1="40.2029" y1="76.45" x2="40.2029" y2="1" gradientUnits="userSpaceOnUse">
<stop stop-color="#005DB2"/>
<stop offset="1" stop-color="#006FD5"/>
</linearGradient>
</defs>
</svg>
