<svg width="52" height="51" viewBox="0 0 52 51" fill="none" xmlns="http://www.w3.org/2000/svg">
<path d="M32.0031 14.7505C32.003 13.5861 31.6508 12.4479 30.991 11.4797C30.3313 10.5116 29.3937 9.75709 28.2967 9.31158C27.1998 8.86608 25.9928 8.74959 24.8283 8.97686C23.6639 9.20413 22.5943 9.76494 21.7548 10.5884C20.9154 11.4118 20.3437 12.4609 20.1121 13.603C19.8806 14.7451 19.9995 15.9289 20.4539 17.0047C20.9083 18.0804 21.6777 18.9999 22.6649 19.6468C23.6521 20.2938 24.8127 20.6391 26 20.6391C27.5917 20.6372 29.1176 20.0161 30.243 18.9122C31.3684 17.8083 32.0014 16.3116 32.0031 14.7505ZM21.4187 14.7505C21.4189 13.8619 21.6877 12.9933 22.1912 12.2545C22.6947 11.5157 23.4102 10.9399 24.2474 10.6C25.0845 10.26 26.0056 10.1711 26.8942 10.3446C27.7829 10.5181 28.5991 10.9461 29.2397 11.5745C29.8803 12.2029 30.3166 13.0035 30.4933 13.8751C30.67 14.7466 30.5792 15.65 30.2325 16.471C29.8857 17.292 29.2985 17.9937 28.5451 18.4873C27.7918 18.981 26.906 19.2445 26 19.2445C24.7852 19.2432 23.6207 18.7692 22.7618 17.9267C21.9029 17.0842 21.4199 15.9419 21.4187 14.7505Z" fill="url(#paint0_linear)"/>
<path d="M50.1019 48.2384L44.3064 33.3369C44.255 33.2049 44.1639 33.0914 44.0453 33.0113C43.9267 32.9312 43.7862 32.8883 43.6421 32.8882H32.6734C32.7404 32.781 32.8071 32.6771 32.8741 32.5695C37.0946 25.7163 39.2185 19.7215 39.188 14.7537C39.1886 11.3232 37.7997 8.03293 35.3268 5.60676C32.8539 3.18059 29.4996 1.81725 26.0018 1.81667C22.5039 1.81609 19.1492 3.17831 16.6754 5.60366C14.2017 8.02901 12.8116 11.3188 12.811 14.7494C12.7806 19.7215 14.9044 25.7171 19.125 32.5695C19.192 32.6782 19.2586 32.7822 19.3256 32.8882H8.3569C8.21289 32.8883 8.0723 32.9312 7.9537 33.0113C7.8351 33.0914 7.74408 33.2049 7.69268 33.3369L1.89793 48.2384C1.85664 48.344 1.84218 48.4579 1.8558 48.5701C1.86943 48.6824 1.91072 48.7898 1.97611 48.8829C2.04151 48.976 2.12904 49.0521 2.23114 49.1046C2.33325 49.1572 2.44686 49.1845 2.56215 49.1843H49.4377C49.553 49.1845 49.6666 49.1572 49.7687 49.1046C49.8708 49.0521 49.9584 48.976 50.0237 48.8829C50.0891 48.7898 50.1304 48.6824 50.1441 48.5701C50.1577 48.4579 50.1432 48.344 50.1019 48.2384ZM14.2333 14.7505C14.2336 13.235 14.5382 11.7344 15.1298 10.3344C15.7213 8.93436 16.5883 7.66231 17.6811 6.59088C18.7739 5.51944 20.0712 4.66961 21.4989 4.08989C22.9266 3.51018 24.4567 3.21194 26.002 3.2122C27.5472 3.21246 29.0772 3.51122 30.5047 4.09142C31.9322 4.67161 33.2292 5.52189 34.3216 6.59369C35.4141 7.6655 36.2806 8.93784 36.8717 10.3381C37.4627 11.7383 37.7668 13.239 37.7666 14.7545C37.8275 24.6589 28.3862 36.8746 25.9999 39.8039C23.6136 36.8758 14.172 24.6633 14.2333 14.7505ZM25.4584 41.3578C25.5251 41.4348 25.6081 41.4966 25.7016 41.539C25.7951 41.5814 25.8969 41.6033 25.9999 41.6033C26.1029 41.6033 26.2047 41.5814 26.2982 41.539C26.3917 41.4966 26.4747 41.4348 26.5415 41.3578C28.429 39.1026 30.179 36.7398 31.7821 34.282H43.1518L44.0618 36.6228L21.8436 44.3728L13.9241 34.2808H20.217C21.8203 36.7391 23.5705 39.1022 25.4584 41.3578ZM21.8188 45.8602H21.8229L35.0776 41.2383L40.2187 47.7898H16.2906L21.8188 45.8602ZM8.84724 34.2808H12.1297L20.4343 44.8641L12.0481 47.7894H3.59402L8.84724 34.2808ZM42.0147 47.7898L36.486 40.7446L44.5704 37.9249L48.4066 47.7898H42.0147Z" fill="url(#paint1_linear)"/>
<defs>
<linearGradient id="paint0_linear" x1="26" y1="8.86363" x2="26" y2="20.6391" gradientUnits="userSpaceOnUse">
<stop stop-color="#3793EA"/>
<stop offset="1" stop-color="#1F5486"/>
</linearGradient>
<linearGradient id="paint1_linear" x1="25.9999" y1="1.81667" x2="25.9999" y2="49.1843" gradientUnits="userSpaceOnUse">
<stop stop-color="#3793EA"/>
<stop offset="1" stop-color="#1F5486"/>
</linearGradient>
</defs>
</svg>
