<svg width="15" height="15" viewBox="0 0 15 15" fill="none" xmlns="http://www.w3.org/2000/svg">
<g clip-path="url(#clip0)">
<path d="M14.8711 14.235L11.2259 10.5898C12.2037 9.46563 12.7957 7.99889 12.7957 6.39579C12.7957 2.86696 9.92544 0 6.39994 0C2.87111 0 0.00415039 2.87029 0.00415039 6.39579C0.00415039 9.92129 2.87444 12.7916 6.39994 12.7916C8.00304 12.7916 9.46978 12.1996 10.594 11.2217L14.2392 14.867C14.3257 14.9534 14.4421 15 14.5551 15C14.6682 15 14.7846 14.9568 14.8711 14.867C15.0441 14.694 15.0441 14.408 14.8711 14.235ZM0.898829 6.39579C0.898829 3.36253 3.36668 0.898004 6.39661 0.898004C9.42987 0.898004 11.8944 3.36585 11.8944 6.39579C11.8944 9.42572 9.42987 11.8969 6.39661 11.8969C3.36668 11.8969 0.898829 9.42905 0.898829 6.39579Z" fill="#B5B5B5"/>
</g>
<defs>
<clipPath id="clip0">
<rect width="15" height="15" fill="white"/>
</clipPath>
</defs>
</svg>
