<svg width="49" height="48" viewBox="0 0 49 48" fill="none" xmlns="http://www.w3.org/2000/svg">
<path d="M24.4999 46.7027C24.3868 46.7027 24.2755 46.6744 24.1768 46.6203C12.6664 40.3083 5.79517 30.1622 5.79517 19.4718V9.29123C5.79509 9.20186 5.81388 9.11343 5.85034 9.0315C5.88681 8.94957 5.94016 8.8759 6.00706 8.81513C6.07379 8.75394 6.15288 8.70714 6.23922 8.67775C6.32556 8.64837 6.41723 8.63705 6.50832 8.64453C14.1894 9.22832 19.8986 6.9081 23.9689 1.55804C24.0332 1.48143 24.1141 1.41972 24.2057 1.37736C24.2973 1.33499 24.3973 1.31302 24.4986 1.31302C24.5999 1.31302 24.6999 1.33499 24.7915 1.37736C24.8831 1.41972 24.964 1.48143 25.0283 1.55804C29.1019 6.9081 34.8191 9.22702 42.4915 8.64453C42.5827 8.63764 42.6743 8.6493 42.7606 8.6788C42.8469 8.70829 42.9261 8.75498 42.9931 8.81591C43.0601 8.87685 43.1135 8.95071 43.1499 9.03285C43.1863 9.11499 43.205 9.20363 43.2047 9.29318V19.4718C43.152 24.9142 41.4563 30.2195 38.3312 34.7196C34.8471 39.6722 30.2189 43.7494 24.8231 46.6197C24.7244 46.6739 24.6131 46.7025 24.4999 46.7027ZM7.11949 9.98464V19.4718C7.11949 29.5836 13.6087 39.2192 24.4999 45.3088C29.5778 42.554 33.9345 38.6836 37.228 34.0015C40.2086 29.7142 41.8274 24.6587 41.8804 19.4718V9.98464C34.3979 10.3933 28.6921 8.10356 24.4999 3.00518C20.3091 8.10226 14.6092 10.3933 7.11949 9.98464Z" fill="url(#paint0_linear)"/>
<path d="M24.5001 42.1719C24.3744 42.1719 24.2513 42.1368 24.1452 42.0707C15.0073 36.3795 9.76831 28.1423 9.76831 19.4718V13.2324C9.76805 13.0664 9.8328 12.9066 9.94921 12.7859C10.0656 12.6653 10.2248 12.5929 10.3941 12.5838C15.447 12.427 20.283 10.5353 24.0564 7.23957C24.1781 7.13199 24.3362 7.07245 24.5001 7.07245C24.664 7.07245 24.8221 7.13199 24.9437 7.23957C28.7167 10.5349 33.5519 12.4265 38.6042 12.5838C38.7734 12.5929 38.9326 12.6653 39.049 12.7859C39.1654 12.9066 39.2302 13.0664 39.2299 13.2324V19.4705C39.1763 24.1463 37.7117 28.702 35.0205 32.5641C32.339 36.387 28.8777 39.6239 24.855 42.0707C24.7489 42.1368 24.6258 42.1719 24.5001 42.1719ZM11.0926 13.8415V19.4718C11.0926 27.5799 15.9728 35.3137 24.5001 40.752C28.2194 38.4353 31.4231 35.407 33.9194 31.8486C36.466 28.1992 37.8536 23.8934 37.9076 19.4731V13.8428C32.9743 13.5621 28.2682 11.7166 24.5001 8.58486C20.7318 11.7161 16.0257 13.5612 11.0926 13.8415Z" fill="url(#paint1_linear)"/>
<path d="M21.703 28.6132C21.5274 28.6132 21.359 28.5448 21.2349 28.4231L17.4102 24.6765C17.2896 24.5542 17.2229 24.3904 17.2244 24.2203C17.2259 24.0502 17.2955 23.8875 17.4183 23.7673C17.5411 23.647 17.7072 23.5788 17.8808 23.5773C18.0544 23.5758 18.2217 23.6412 18.3465 23.7594L21.703 27.0486L30.6535 18.2796C30.7781 18.1579 30.9469 18.0898 31.1228 18.0901C31.2987 18.0904 31.4673 18.1591 31.5914 18.2812C31.7156 18.4032 31.7852 18.5686 31.7849 18.7409C31.7846 18.9132 31.7144 19.0784 31.5898 19.2L22.1712 28.4231C22.047 28.5448 21.8786 28.6132 21.703 28.6132Z" fill="url(#paint2_linear)"/>
<defs>
<linearGradient id="paint0_linear" x1="24.4999" y1="1.31302" x2="24.4999" y2="46.7027" gradientUnits="userSpaceOnUse">
<stop stop-color="#3793EA"/>
<stop offset="1" stop-color="#1F5486"/>
</linearGradient>
<linearGradient id="paint1_linear" x1="24.4991" y1="7.07245" x2="24.4991" y2="42.1719" gradientUnits="userSpaceOnUse">
<stop stop-color="#3793EA"/>
<stop offset="1" stop-color="#1F5486"/>
</linearGradient>
<linearGradient id="paint2_linear" x1="24.5046" y1="18.0901" x2="24.5046" y2="28.6132" gradientUnits="userSpaceOnUse">
<stop stop-color="#3793EA"/>
<stop offset="1" stop-color="#1F5486"/>
</linearGradient>
</defs>
</svg>
