<svg width="49" height="49" viewBox="0 0 49 49" fill="none" xmlns="http://www.w3.org/2000/svg">
<path d="M35.0166 31.7335H20.9337C20.0865 31.7299 19.2659 31.4378 18.607 30.9053C17.9481 30.3728 17.4903 29.6316 17.309 28.8041L14.279 14.6927H11.335C11.1594 14.6927 10.991 14.623 10.8668 14.4988C10.7426 14.3746 10.6729 14.2062 10.6729 14.0306C10.6729 13.855 10.7426 13.6865 10.8668 13.5624C10.991 13.4382 11.1594 13.3684 11.335 13.3684H14.8147C14.9662 13.3684 15.1131 13.4203 15.231 13.5155C15.3488 13.6107 15.4305 13.7434 15.4623 13.8915L18.6042 28.5253C18.7209 29.0572 19.0152 29.5335 19.4388 29.8757C19.8623 30.2179 20.3899 30.4056 20.9344 30.4078H35.0166C35.1922 30.4078 35.3606 30.4776 35.4848 30.6018C35.609 30.7259 35.6787 30.8944 35.6787 31.07C35.6787 31.2456 35.609 31.414 35.4848 31.5382C35.3606 31.6624 35.1922 31.7321 35.0166 31.7321V31.7335Z" fill="white"/>
<path d="M31.7726 27.1805H17.4917C17.3161 27.1805 17.1477 27.1108 17.0235 26.9866C16.8993 26.8624 16.8296 26.694 16.8296 26.5184C16.8296 26.3427 16.8993 26.1743 17.0235 26.0501C17.1477 25.926 17.3161 25.8562 17.4917 25.8562H31.7726C32.0906 25.8579 32.3986 25.7451 32.6403 25.5384C32.882 25.3317 33.0413 25.0449 33.089 24.7305L34.0974 18.2162H15.5682C15.3926 18.2162 15.2241 18.1464 15.0999 18.0222C14.9758 17.898 14.906 17.7296 14.906 17.554C14.906 17.3784 14.9758 17.21 15.0999 17.0858C15.2241 16.9616 15.3926 16.8918 15.5682 16.8918H34.8702C34.9657 16.8919 35.0601 16.9126 35.1468 16.9525C35.2336 16.9924 35.3107 17.0506 35.3729 17.1232C35.435 17.1957 35.4807 17.2808 35.5069 17.3726C35.533 17.4645 35.539 17.5609 35.5244 17.6553L34.3987 24.9331C34.3038 25.5607 33.9862 26.1331 33.504 26.5457C33.0218 26.9583 32.4072 27.1837 31.7726 27.1805Z" fill="white"/>
<path d="M31.5817 38.2802C31.0468 38.2801 30.5238 38.1213 30.0791 37.824C29.6344 37.5267 29.2878 37.1042 29.0832 36.61C28.8785 36.1157 28.8251 35.5718 28.9295 35.0472C29.0339 34.5225 29.2916 34.0406 29.6699 33.6624C30.0483 33.2842 30.5302 33.0266 31.0549 32.9223C31.5796 32.818 32.1234 32.8716 32.6177 33.0763C33.1119 33.2811 33.5343 33.6278 33.8315 34.0726C34.1287 34.5174 34.2873 35.0403 34.2873 35.5753C34.2864 36.2925 34.0011 36.9801 33.4938 37.4872C32.9866 37.9943 32.2989 38.2795 31.5817 38.2802ZM31.5817 34.194C31.3087 34.1942 31.0418 34.2752 30.8149 34.427C30.5879 34.5788 30.4111 34.7945 30.3067 35.0468C30.2023 35.299 30.175 35.5766 30.2284 35.8444C30.2817 36.1122 30.4133 36.3581 30.6064 36.5511C30.7995 36.7441 31.0455 36.8755 31.3133 36.9288C31.5811 36.982 31.8586 36.9546 32.1109 36.8501C32.3631 36.7456 32.5787 36.5686 32.7303 36.3416C32.882 36.1146 32.963 35.8477 32.963 35.5746C32.9625 35.2085 32.8167 34.8576 32.5578 34.5987C32.2988 34.3399 31.9478 34.1944 31.5817 34.194Z" fill="white"/>
<path d="M22.3434 38.2802C21.8084 38.2802 21.2854 38.1216 20.8406 37.8244C20.3958 37.5271 20.0491 37.1047 19.8443 36.6104C19.6396 36.1162 19.586 35.5723 19.6904 35.0476C19.7948 34.5229 20.0524 34.0409 20.4307 33.6626C20.809 33.2843 21.2909 33.0267 21.8157 32.9223C22.3404 32.818 22.8842 32.8715 23.3785 33.0763C23.8728 33.281 24.2952 33.6277 24.5924 34.0725C24.8896 34.5173 25.0483 35.0403 25.0483 35.5753C25.0474 36.2924 24.7622 36.9799 24.2551 37.487C23.748 37.9941 23.0605 38.2794 22.3434 38.2802ZM22.3434 34.194C22.0703 34.194 21.8034 34.275 21.5763 34.4267C21.3493 34.5784 21.1723 34.794 21.0678 35.0463C20.9634 35.2986 20.936 35.5762 20.9893 35.844C21.0426 36.1118 21.174 36.3578 21.3671 36.5509C21.5602 36.744 21.8062 36.8754 22.074 36.9287C22.3418 36.982 22.6194 36.9546 22.8717 36.8501C23.124 36.7457 23.3396 36.5687 23.4913 36.3417C23.643 36.1146 23.724 35.8477 23.724 35.5746C23.7234 35.2086 23.5778 34.8578 23.319 34.599C23.0602 34.3402 22.7094 34.1945 22.3434 34.194Z" fill="white"/>
<circle cx="38.5" cy="34.5" r="10.5" fill="white"/>
<path d="M40.5457 37.556C40.0017 37.948 39.3217 38.144 38.5057 38.144C37.6897 38.144 37.0057 37.948 36.4537 37.556C35.9097 37.164 35.6377 36.636 35.6377 35.972C35.6377 35.468 35.8177 35.032 36.1777 34.664C36.5457 34.296 37.0017 34.032 37.5457 33.872C37.0337 33.728 36.6097 33.496 36.2737 33.176C35.9377 32.848 35.7697 32.44 35.7697 31.952C35.7697 31.28 36.0417 30.768 36.5857 30.416C37.1297 30.056 37.7697 29.876 38.5057 29.876C39.2417 29.876 39.8817 30.056 40.4257 30.416C40.9777 30.768 41.2537 31.28 41.2537 31.952C41.2537 32.44 41.0857 32.848 40.7497 33.176C40.4137 33.496 39.9857 33.728 39.4657 33.872C40.0097 34.032 40.4617 34.296 40.8217 34.664C41.1897 35.032 41.3737 35.468 41.3737 35.972C41.3737 36.628 41.0977 37.156 40.5457 37.556ZM38.5057 33.464C38.6657 33.44 38.8257 33.4 38.9857 33.344C39.1537 33.288 39.3417 33.212 39.5497 33.116C39.7577 33.012 39.9257 32.872 40.0537 32.696C40.1817 32.512 40.2457 32.308 40.2457 32.084C40.2457 31.684 40.0777 31.364 39.7417 31.124C39.4137 30.884 39.0017 30.764 38.5057 30.764C38.0017 30.764 37.5857 30.884 37.2577 31.124C36.9297 31.364 36.7657 31.684 36.7657 32.084C36.7657 32.308 36.8297 32.512 36.9577 32.696C37.0857 32.872 37.2537 33.012 37.4617 33.116C37.6697 33.212 37.8537 33.288 38.0137 33.344C38.1817 33.392 38.3457 33.432 38.5057 33.464ZM38.5057 37.256C39.0177 37.256 39.4537 37.128 39.8137 36.872C40.1817 36.616 40.3657 36.28 40.3657 35.864C40.3657 35.544 40.2377 35.264 39.9817 35.024C39.7337 34.776 39.4777 34.604 39.2137 34.508C38.9577 34.404 38.7217 34.34 38.5057 34.316C38.2897 34.34 38.0497 34.404 37.7857 34.508C37.5297 34.604 37.2737 34.776 37.0177 35.024C36.7617 35.264 36.6337 35.544 36.6337 35.864C36.6337 36.28 36.8137 36.616 37.1737 36.872C37.5417 37.128 37.9857 37.256 38.5057 37.256Z" fill="#356592"/>
</svg>
