<svg width="49" height="49" viewBox="0 0 49 49" fill="none" xmlns="http://www.w3.org/2000/svg">
<path d="M35.0166 31.7335H20.9337C20.0865 31.7299 19.2659 31.4378 18.607 30.9053C17.9481 30.3728 17.4903 29.6316 17.309 28.8041L14.279 14.6927H11.335C11.1594 14.6927 10.991 14.623 10.8668 14.4988C10.7426 14.3746 10.6729 14.2062 10.6729 14.0306C10.6729 13.855 10.7426 13.6865 10.8668 13.5624C10.991 13.4382 11.1594 13.3684 11.335 13.3684H14.8147C14.9662 13.3684 15.1131 13.4203 15.231 13.5155C15.3488 13.6107 15.4305 13.7434 15.4623 13.8915L18.6042 28.5253C18.7209 29.0572 19.0152 29.5335 19.4388 29.8757C19.8623 30.2179 20.3899 30.4056 20.9344 30.4078H35.0166C35.1922 30.4078 35.3606 30.4776 35.4848 30.6018C35.609 30.7259 35.6787 30.8944 35.6787 31.07C35.6787 31.2456 35.609 31.414 35.4848 31.5382C35.3606 31.6624 35.1922 31.7321 35.0166 31.7321V31.7335Z" fill="#343434"/>
<path d="M31.7726 27.1804H17.4917C17.3161 27.1804 17.1477 27.1106 17.0235 26.9865C16.8993 26.8623 16.8296 26.6939 16.8296 26.5182C16.8296 26.3426 16.8993 26.1742 17.0235 26.05C17.1477 25.9258 17.3161 25.8561 17.4917 25.8561H31.7726C32.0906 25.8578 32.3986 25.745 32.6403 25.5383C32.882 25.3316 33.0413 25.0448 33.089 24.7304L34.0974 18.216H15.5682C15.3926 18.216 15.2241 18.1463 15.0999 18.0221C14.9758 17.8979 14.906 17.7295 14.906 17.5539C14.906 17.3783 14.9758 17.2098 15.0999 17.0857C15.2241 16.9615 15.3926 16.8917 15.5682 16.8917H34.8702C34.9657 16.8917 35.0601 16.9124 35.1468 16.9524C35.2336 16.9923 35.3107 17.0505 35.3729 17.123C35.435 17.1956 35.4807 17.2807 35.5069 17.3725C35.533 17.4644 35.539 17.5608 35.5244 17.6552L34.3987 24.933C34.3038 25.5605 33.9862 26.1329 33.504 26.5456C33.0218 26.9582 32.4072 27.1836 31.7726 27.1804Z" fill="#343434"/>
<path d="M31.5817 38.2802C31.0468 38.2801 30.5238 38.1213 30.0791 37.824C29.6344 37.5267 29.2878 37.1042 29.0832 36.61C28.8785 36.1157 28.8251 35.5718 28.9295 35.0472C29.0339 34.5225 29.2916 34.0406 29.6699 33.6624C30.0483 33.2842 30.5302 33.0266 31.0549 32.9223C31.5796 32.818 32.1234 32.8716 32.6177 33.0763C33.1119 33.2811 33.5343 33.6278 33.8315 34.0726C34.1287 34.5174 34.2873 35.0403 34.2873 35.5753C34.2864 36.2925 34.0011 36.9801 33.4938 37.4872C32.9866 37.9943 32.2989 38.2795 31.5817 38.2802ZM31.5817 34.194C31.3087 34.1942 31.0418 34.2752 30.8149 34.427C30.5879 34.5788 30.4111 34.7945 30.3067 35.0468C30.2023 35.299 30.175 35.5766 30.2284 35.8444C30.2817 36.1122 30.4133 36.3581 30.6064 36.5511C30.7995 36.7441 31.0455 36.8755 31.3133 36.9288C31.5811 36.982 31.8586 36.9546 32.1109 36.8501C32.3631 36.7456 32.5787 36.5686 32.7303 36.3416C32.882 36.1146 32.963 35.8477 32.963 35.5746C32.9625 35.2085 32.8167 34.8576 32.5578 34.5987C32.2988 34.3399 31.9478 34.1944 31.5817 34.194Z" fill="#343434"/>
<path d="M22.3434 38.2802C21.8084 38.2802 21.2854 38.1216 20.8406 37.8244C20.3958 37.5271 20.0491 37.1047 19.8443 36.6104C19.6396 36.1162 19.586 35.5723 19.6904 35.0476C19.7948 34.5229 20.0524 34.0409 20.4307 33.6626C20.809 33.2843 21.2909 33.0267 21.8157 32.9223C22.3404 32.818 22.8842 32.8715 23.3785 33.0763C23.8728 33.281 24.2952 33.6277 24.5924 34.0725C24.8896 34.5173 25.0483 35.0403 25.0483 35.5753C25.0474 36.2924 24.7622 36.9799 24.2551 37.487C23.748 37.9941 23.0605 38.2794 22.3434 38.2802ZM22.3434 34.194C22.0703 34.194 21.8034 34.275 21.5763 34.4267C21.3493 34.5784 21.1723 34.794 21.0678 35.0463C20.9634 35.2986 20.936 35.5762 20.9893 35.844C21.0426 36.1118 21.174 36.3578 21.3671 36.5509C21.5602 36.744 21.8062 36.8754 22.074 36.9287C22.3418 36.982 22.6194 36.9546 22.8717 36.8501C23.124 36.7457 23.3396 36.5687 23.4913 36.3417C23.643 36.1146 23.724 35.8477 23.724 35.5746C23.7234 35.2086 23.5778 34.8578 23.319 34.599C23.0602 34.3402 22.7094 34.1945 22.3434 34.194Z" fill="#343434"/>
<circle cx="38.5" cy="34.5" r="10" fill="white" stroke="#343434"/>
</svg>
