<svg width="15" height="15" viewBox="0 0 15 15" fill="none" xmlns="http://www.w3.org/2000/svg">
<g clip-path="url(#clip0)">
<path d="M11.3814 0H3.61856C3.09492 0 2.66895 0.426007 2.66895 0.94966V14.0504C2.66895 14.574 3.09495 15 3.61859 15H11.3814C11.905 15 12.331 14.574 12.331 14.0504V0.94966C12.331 0.426007 11.905 0 11.3814 0ZM3.14482 2.38687H11.8552V12.3069H3.14482V2.38687ZM3.61856 0.475877H11.3814C11.6426 0.475877 11.8552 0.688402 11.8552 0.94966V2.06962H3.14482V0.94966C3.14482 0.688402 3.35735 0.475877 3.61856 0.475877ZM11.3814 14.5241H3.61856C3.35735 14.5241 3.14479 14.3116 3.14479 14.0503V12.6241H11.8551V14.0503C11.8551 14.3116 11.6426 14.5241 11.3814 14.5241Z" fill="#343434"/>
<path d="M7.50001 12.8344C7.07027 12.8344 6.7207 13.184 6.7207 13.6137C6.7207 14.0434 7.07031 14.393 7.50001 14.393C7.9297 14.393 8.27931 14.0434 8.27931 13.6137C8.27931 13.1841 7.92974 12.8344 7.50001 12.8344ZM7.50001 14.0758C7.24521 14.0758 7.03797 13.8685 7.03797 13.6137C7.03797 13.359 7.24521 13.1516 7.50001 13.1516C7.7548 13.1516 7.96204 13.359 7.96204 13.6137C7.96204 13.8685 7.7548 14.0758 7.50001 14.0758Z" fill="#343434"/>
<path d="M6.42135 1.51159H8.57863C8.66625 1.51159 8.73728 1.44056 8.73728 1.35296C8.73728 1.26537 8.66625 1.19434 8.57863 1.19434H6.42135C6.33372 1.19434 6.2627 1.26537 6.2627 1.35296C6.2627 1.44056 6.33372 1.51159 6.42135 1.51159Z" fill="#343434"/>
<path d="M5.85027 1.51159C5.89185 1.51159 5.93277 1.49477 5.96228 1.46527C5.99179 1.43545 6.00892 1.39484 6.00892 1.35296C6.00892 1.31108 5.99179 1.27048 5.96228 1.24065C5.93273 1.21115 5.89181 1.19434 5.85027 1.19434C5.80841 1.19434 5.76777 1.21115 5.73798 1.24065C5.70846 1.27016 5.69165 1.31108 5.69165 1.35296C5.69165 1.39484 5.70846 1.43545 5.73798 1.46527C5.76749 1.49477 5.80841 1.51159 5.85027 1.51159Z" fill="#343434"/>
</g>
<defs>
<clipPath id="clip0">
<rect width="15" height="15" fill="white"/>
</clipPath>
</defs>
</svg>
