<svg width="48" height="47" viewBox="0 0 48 47" fill="none" xmlns="http://www.w3.org/2000/svg">
<path d="M43.0271 6.5216C42.0604 6.46918 41.157 7.13076 41.157 8.12804V14.2919H25.67L24.9835 12.8869C26.5725 10.8241 25.8891 7.77738 23.5804 6.53913L23.6292 2.00675C23.6572 -0.610194 19.5403 -0.629655 19.5122 1.96425L19.4634 6.49185C17.1308 7.68127 16.3815 10.7209 17.9238 12.8136L17.162 14.2919H1.64062C0.736031 14.2919 0 15.0126 0 15.8984V45.3633C0 46.2491 0.736031 46.9698 1.64062 46.9698H43.3193C45.8862 46.9698 47.9764 44.9357 47.999 42.4274C47.9992 42.4205 48 42.4138 48 42.4068V11.391C48 8.70599 45.7691 6.5216 43.0271 6.5216ZM42.5632 8.12804C42.5632 7.9002 42.8563 7.86238 43.0271 7.89855C44.9938 7.89855 46.5938 9.46515 46.5938 11.3909V39.1344C45.7487 38.3232 44.5919 37.8224 43.318 37.8224C43.1351 37.8498 42.5632 37.9006 42.5632 37.5929V8.12804ZM31.2873 28.9802L30.5527 31.0188L22.4761 14.4877C22.9947 14.3693 23.479 14.1615 23.9097 13.8799L31.2873 28.9802ZM18.9757 13.8287C19.4002 14.1191 19.8796 14.3374 20.3956 14.4664L11.9646 30.8266L11.2742 28.7732L18.9757 13.8287ZM23.8785 20.5487L18.8632 20.4968L21.4247 15.5262L23.8785 20.5487ZM20.9183 1.97884C20.9273 1.13734 22.2317 1.17342 22.2229 1.99225L22.179 6.0684C21.7484 6.00065 21.3067 5.99514 20.8745 6.05279L20.9183 1.97884ZM19.3971 8.22314C19.9561 7.68723 20.7307 7.38421 21.5123 7.39073C23.1547 7.40771 24.4766 8.72977 24.4594 10.3379C24.4421 11.9356 23.1094 13.2237 21.4814 13.2237C21.4708 13.2237 21.46 13.2236 21.4494 13.2235C19.8071 13.2065 18.4853 11.8845 18.5025 10.2764C18.5108 9.49738 18.8286 8.76814 19.3971 8.22314ZM43.3193 45.5929H1.64062C1.51134 45.5929 1.40625 45.4899 1.40625 45.3634V15.8985C1.40625 15.772 1.51134 15.669 1.64062 15.669H16.4522L13.9901 20.4465L11.6149 20.4219C10.7113 20.4061 10.6925 21.7894 11.6001 21.7988L13.2843 21.8162L9.97481 28.2382C9.83391 28.5116 9.81019 28.8225 9.90797 29.1134L10.8061 31.7846C11.1258 32.7354 12.5041 32.8362 12.9646 31.9426L18.1571 21.8666L24.5546 21.9327L29.5283 32.1127C29.9673 33.0115 31.3508 32.9422 31.6905 31.9994L32.6456 29.3487C32.7498 29.0597 32.7328 28.7482 32.5976 28.4716L29.4275 21.983L31.1117 22.0004C32.0153 22.0162 32.0341 20.6329 31.1265 20.6235L28.7512 20.599L26.3425 15.6689H41.1568V37.593C41.1568 38.8011 42.2703 39.2374 43.3178 39.1994C45.1206 39.1994 46.5877 40.6329 46.5934 42.3968C46.5878 44.1601 45.1214 45.5929 43.3193 45.5929Z" fill="url(#paint0_linear)"/>
<path d="M36.827 34.2938H5.73535C5.08913 34.2938 4.56348 34.8085 4.56348 35.4413V41.6835C4.56348 42.3162 5.08913 42.8309 5.73535 42.8309H36.8271C37.4733 42.8309 37.9989 42.3162 37.9989 41.6835V35.4413C37.9989 34.8086 37.4732 34.2938 36.827 34.2938ZM36.5926 41.454H5.96973V35.6708H7.78163V36.9033C7.78163 37.765 9.18788 37.8042 9.18788 36.9033V35.6708H10.9808V37.8213C10.9808 38.6829 12.387 38.7221 12.387 37.8213V35.6708H14.1798V36.9033C14.1798 37.765 15.586 37.8042 15.586 36.9033V35.6708H17.3789V37.8213C17.3789 38.6829 18.7852 38.7221 18.7852 37.8213V35.6708H20.578V36.9033C20.578 37.765 21.9843 37.8042 21.9843 36.9033V35.6708H23.7772V37.8213C23.7772 38.6829 25.1834 38.7221 25.1834 37.8213V35.6708H26.9763V36.9033C26.9763 37.765 28.3825 37.8042 28.3825 36.9033V35.6708H30.1753V37.8213C30.1753 38.6829 31.5816 38.7221 31.5816 37.8213V35.6708H33.3744V36.9033C33.3744 37.765 34.7807 37.8042 34.7807 36.9033V35.6708H36.5926V41.454Z" fill="url(#paint1_linear)"/>
<defs>
<linearGradient id="paint0_linear" x1="24" y1="0.0313625" x2="24" y2="46.9698" gradientUnits="userSpaceOnUse">
<stop stop-color="#3793EA"/>
<stop offset="1" stop-color="#1F5486"/>
</linearGradient>
<linearGradient id="paint1_linear" x1="21.2812" y1="34.2938" x2="21.2812" y2="42.8309" gradientUnits="userSpaceOnUse">
<stop stop-color="#3793EA"/>
<stop offset="1" stop-color="#1F5486"/>
</linearGradient>
</defs>
</svg>
