<svg width="13" height="14" viewBox="0 0 13 14" fill="none" xmlns="http://www.w3.org/2000/svg">
<path d="M3.14417 12.1598C4.14859 12.7686 5.29702 13.0895 6.47699 13.0895C10.0526 13.0895 13 10.1506 13 6.5447C13 2.94298 10.0568 0 6.47699 0C2.90812 0 0.00466157 2.93598 0.00466157 6.5447C0.00466157 7.7491 0.323334 8.91464 0.92765 9.92714L0 13.0942L3.14417 12.1598ZM0.766182 6.5447C0.766182 3.35886 3.32806 0.766938 6.47699 0.766938C9.65389 0.766938 12.2386 3.35886 12.2386 6.5447C12.2386 9.73063 9.65389 12.3225 6.47699 12.3225C5.3838 12.3225 4.32146 12.0106 3.40512 11.4204L3.25873 11.3261L1.12621 11.9599L1.75533 9.81185L1.6618 9.6645C1.07583 8.74132 0.766182 7.66259 0.766182 6.5447Z" fill="#343434"/>
<path d="M3.16434 5.33901C3.2901 6.00428 3.66343 7.28388 4.75036 8.37875C5.8373 9.47361 7.10762 9.84976 7.76818 9.97644C8.52454 10.1215 9.63448 10.1434 10.1769 9.597L10.4793 9.29238C10.632 9.13863 10.7161 8.93412 10.7161 8.71663C10.7161 8.49913 10.632 8.29472 10.4793 8.14097L9.26999 6.92282C9.11725 6.76896 8.91432 6.68434 8.6984 6.68434C8.48248 6.68434 8.27956 6.76896 8.12682 6.92282L7.82451 7.22733C7.63983 7.41336 7.29121 7.41416 7.10514 7.22963L5.89889 5.96362C5.89711 5.96172 5.89532 5.95983 5.89344 5.95803C5.70846 5.7717 5.70846 5.46849 5.89344 5.28216L6.19574 4.97765C6.51174 4.65935 6.51174 4.14434 6.19574 3.82614L4.98642 2.60798C4.67131 2.29058 4.15854 2.29058 3.84334 2.60798L3.54104 2.9126V2.9125C3.10811 3.34869 2.9638 4.27841 3.16434 5.33901ZM4.0795 3.45499C4.39688 3.14258 4.37992 3.13659 4.41493 3.13659C4.42693 3.13659 4.43893 3.14118 4.44806 3.15037C5.72235 4.44086 5.67117 4.36503 5.67117 4.40199C5.67117 4.41488 5.66651 4.42617 5.65748 4.43536L5.35508 4.73988C4.87355 5.22492 4.87166 6.01008 5.352 6.49732L6.55895 7.76412C6.56083 7.76592 6.56262 7.76782 6.5645 7.76972C7.04593 8.25466 7.87995 8.25626 8.36297 7.76972L8.66528 7.46521C8.68353 7.44682 8.71328 7.44682 8.73153 7.46521C10.0058 8.75559 9.95464 8.67976 9.95464 8.71673C9.95464 8.72971 9.94998 8.7409 9.94096 8.7501L9.63855 9.05461C9.43136 9.26331 8.7714 9.38819 7.9106 9.22305C7.33614 9.11275 6.23155 8.78606 5.28882 7.83646C4.3461 6.88685 4.02177 5.7742 3.91237 5.19555C3.74833 4.32846 3.8723 3.66359 4.0795 3.45499Z" fill="#343434"/>
</svg>
